<svg width="24" height="24" viewBox="0 0 24 24" fill="none" xmlns="http://www.w3.org/2000/svg">
<path d="M5.99805 6L7.99805 4M7.99805 4L5.99805 2M7.99805 4H5.99805C3.78891 4 1.99805 5.79086 1.99805 8M17.998 18L15.998 20M15.998 20L17.998 22M15.998 20H17.998C20.2072 20 21.998 18.2091 21.998 16M13.4152 13.4172C14.1975 13.7908 15.0733 14 15.998 14C19.3118 14 21.998 11.3137 21.998 8C21.998 4.68629 19.3118 2 15.998 2C12.6843 2 9.99805 4.68629 9.99805 8C9.99805 8.92472 10.2072 9.80057 10.5809 10.5828M13.998 16C13.998 19.3137 11.3118 22 7.99805 22C4.68434 22 1.99805 19.3137 1.99805 16C1.99805 12.6863 4.68434 10 7.99805 10C11.3118 10 13.998 12.6863 13.998 16Z" stroke="#2ED3B7" stroke-width="2" stroke-linecap="round" stroke-linejoin="round"/>
</svg>
