<svg width="28" height="36" viewBox="0 0 28 36" fill="none" xmlns="http://www.w3.org/2000/svg">
<path d="M18.0336 1.10235C18.0336 0.474967 17.5245 -0.0373536 16.8984 0.00214043C14.9185 0.127024 12.9701 0.577937 11.1325 1.3391C8.94452 2.24538 6.9565 3.57372 5.28193 5.2483C3.60735 6.92288 2.279 8.91089 1.37273 11.0988C0.466453 13.2868 -2.07035e-07 15.6318 0 18C2.07036e-07 20.3682 0.466454 22.7132 1.37273 24.9012C2.279 27.0891 3.60735 29.0771 5.28193 30.7517C6.95651 32.4263 8.94452 33.7546 11.1325 34.6609C12.9701 35.4221 14.9185 35.873 16.8984 35.9979C17.5245 36.0374 18.0336 35.525 18.0336 34.8976L18.0336 1.10235Z" fill="url(#paint0_linear_420_21)"/>
<path d="M27.6893 4.79433C27.6893 4.16695 27.1798 3.65348 26.5545 3.70512C23.2416 3.97871 20.1165 5.44357 17.749 7.85894C15.1127 10.5485 13.6316 14.1964 13.6316 18.0001C13.6316 21.8037 15.1127 25.4516 17.749 28.1412C20.1165 30.5565 23.2416 32.0214 26.5545 32.295C27.1798 32.3466 27.6893 31.8332 27.6893 31.2058V4.79433Z" fill="url(#paint1_linear_420_21)"/>
<defs>
<linearGradient id="paint0_linear_420_21" x1="-0.218683" y1="39.8235" x2="28.0042" y2="-4.54021" gradientUnits="userSpaceOnUse">
<stop stop-color="#0194FF"/>
<stop offset="1" stop-color="#1FF8D1"/>
</linearGradient>
<linearGradient id="paint1_linear_420_21" x1="13.4611" y1="35.3358" x2="36.0568" y2="0.480814" gradientUnits="userSpaceOnUse">
<stop stop-color="#0194FF"/>
<stop offset="1" stop-color="#1FF8D1"/>
</linearGradient>
</defs>
</svg>
