<svg width="25" height="24" viewBox="0 0 25 24" fill="none" xmlns="http://www.w3.org/2000/svg">
<path d="M5.98292 19.4384C6.59125 18.0052 8.01155 17 9.66663 17H15.6666C17.3217 17 18.742 18.0052 19.3503 19.4384M16.6666 9.5C16.6666 11.7091 14.8758 13.5 12.6666 13.5C10.4575 13.5 8.66663 11.7091 8.66663 9.5C8.66663 7.29086 10.4575 5.5 12.6666 5.5C14.8758 5.5 16.6666 7.29086 16.6666 9.5ZM22.6666 12C22.6666 17.5228 18.1895 22 12.6666 22C7.14378 22 2.66663 17.5228 2.66663 12C2.66663 6.47715 7.14378 2 12.6666 2C18.1895 2 22.6666 6.47715 22.6666 12Z" stroke="#2ED3B7" stroke-width="2" stroke-linecap="round" stroke-linejoin="round"/>
</svg>
