<svg width="24" height="24" viewBox="0 0 24 24" fill="none" xmlns="http://www.w3.org/2000/svg">
<g clip-path="url(#clip0_420_634)">
<circle cx="12" cy="12" r="12" fill="#D9D9D9"/>
<path d="M18.5881 8.02882H16.4651C16.2178 8.02882 15.9825 7.92308 15.8188 7.73903L14.9576 6.76991C14.8294 6.62527 14.6446 6.54297 14.4514 6.54297C14.2581 6.54297 14.0733 6.62577 13.9452 6.76991L13.2067 7.60137C12.9648 7.8732 12.6178 8.02932 12.2533 8.02932H0.63287C0.301915 8.96902 0.0861184 9.96158 0 10.9911H10.9701C11.1628 10.9911 11.3476 10.9127 11.4808 10.7741L12.5022 9.71219C12.6299 9.57952 12.8061 9.5047 12.9904 9.5047H13.0324C13.2262 9.5047 13.4104 9.5875 13.5386 9.73214L14.3993 10.7013C14.563 10.8858 14.7983 10.9911 15.0457 10.9911H24C23.9139 9.96108 23.6981 8.96852 23.3671 8.02932H18.5876L18.5881 8.02882Z" fill="black"/>
<path d="M6.63794 17.2192C6.8307 17.2192 7.01546 17.1409 7.14864 17.0023L8.17005 15.9404C8.29772 15.8077 8.47396 15.7329 8.65822 15.7329H8.70028C8.89404 15.7329 9.07829 15.8157 9.20647 15.9598L10.0672 16.9289C10.2309 17.1135 10.4662 17.2187 10.7135 17.2187H22.8482C23.3029 16.283 23.6358 15.279 23.8341 14.2271H12.1866C11.9392 14.2271 11.7039 14.1213 11.5402 13.9373L10.6795 12.9682C10.5513 12.8235 10.3666 12.7412 10.1733 12.7412C9.98003 12.7412 9.79528 12.824 9.6671 12.9682L8.92859 13.7996C8.68676 14.0714 8.33978 14.2276 7.97478 14.2276H0.165039C0.363312 15.2795 0.69677 16.2835 1.15089 17.2192H6.63794Z" fill="black"/>
<path d="M15.2468 4.79224C15.4396 4.79224 15.6244 4.71393 15.7575 4.57527L16.7789 3.51338C16.9066 3.3807 17.0829 3.30589 17.2671 3.30589H17.3092C17.5029 3.30589 17.6872 3.38868 17.8154 3.53333L18.6761 4.50245C18.8398 4.687 19.0751 4.79224 19.3224 4.79224H21.6301C19.4326 1.88238 15.9373 0 11.9999 0C8.06246 0 4.56715 1.88238 2.36963 4.79224H15.2468Z" fill="black"/>
<path d="M10.612 20.1841H7.45617C7.20883 20.1841 6.97351 20.0784 6.80978 19.8943L5.9491 18.9252C5.82092 18.7805 5.63617 18.6982 5.4429 18.6982C5.24964 18.6982 5.06488 18.781 4.93671 18.9252L4.19819 19.7566C3.95636 20.0285 3.60938 20.1846 3.24438 20.1846H3.19531C5.39384 22.5313 8.52464 24.0002 12.0009 24.0002C15.4772 24.0002 18.6075 22.5313 20.8065 20.1846H10.612V20.1841Z" fill="black"/>
</g>
<defs>
<clipPath id="clip0_420_634">
<rect width="24" height="24" fill="white"/>
</clipPath>
</defs>
</svg>
