<svg width="24" height="24" viewBox="0 0 24 24" fill="none" xmlns="http://www.w3.org/2000/svg">
<g clip-path="url(#clip0_420_656)">
<path d="M12 24C18.6274 24 24 18.6274 24 12C24 5.37258 18.6274 0 12 0C5.37258 0 0 5.37258 0 12C0 18.6274 5.37258 24 12 24Z" fill="#2D374B"/>
<path d="M11.1998 3.41005C11.6949 3.13024 12.305 3.13024 12.8001 3.41005L19.2001 7.02699C19.695 7.30671 19.9999 7.82355 19.9999 8.38292V15.6175C19.9999 16.1768 19.695 16.6937 19.2001 16.9734L12.8001 20.5903C12.305 20.8702 11.6949 20.8702 11.1998 20.5903L4.79984 16.9734C4.30492 16.6937 4 16.1768 4 15.6175V8.38292C4 7.82355 4.30492 7.30671 4.79984 7.02699L11.1998 3.41005Z" fill="#96BEDC"/>
<path d="M11.76 4.34782C11.9251 4.2545 12.1285 4.2545 12.2936 4.34782L18.6269 7.92814C18.7918 8.02138 18.8934 8.19366 18.8934 8.38006V15.5412C18.8934 15.7276 18.7918 15.8999 18.6269 15.9931L12.2936 19.5735C12.1285 19.6668 11.9251 19.6668 11.76 19.5735L5.42672 15.9931C5.2618 15.8999 5.16016 15.7276 5.16016 15.5412V8.38006C5.16016 8.19366 5.2618 8.02138 5.42672 7.92814L11.76 4.34782Z" fill="#2D374B"/>
<path d="M5.75632 17.5136L4.6144 16.8682C4.23476 16.6537 4 16.2513 4 15.8153L8.29008 9.39099C8.75796 8.69035 9.55548 8.26807 10.4107 8.26807H11.6466L5.75632 17.5136Z" fill="white"/>
<path d="M8.48251 19.0543L6.42871 17.8936L12.4132 8.26807H15.0065L8.48251 19.0543Z" fill="white"/>
<path fill-rule="evenodd" clip-rule="evenodd" d="M16.8215 17.014L14.5452 18.3008L12.0667 14.5053L13.5867 12.0131L16.8215 17.014ZM18.8933 14.4394V15.5415C18.8933 15.7279 18.7917 15.9002 18.6268 15.9934L17.4703 16.6472L14.0267 11.2368L15.3466 9.0708L18.8933 14.4394Z" fill="#28A0F0"/>
</g>
<defs>
<clipPath id="clip0_420_656">
<rect width="24" height="24" fill="white"/>
</clipPath>
</defs>
</svg>
