<svg width="24" height="24" viewBox="0 0 24 24" fill="none" xmlns="http://www.w3.org/2000/svg">
<g clip-path="url(#clip0_420_664)">
<path d="M12 24C18.6274 24 24 18.6274 24 12C24 5.37258 18.6274 0 12 0C5.37258 0 0 5.37258 0 12C0 18.6274 5.37258 24 12 24Z" fill="#D64F4A"/>
<path fill-rule="evenodd" clip-rule="evenodd" d="M8.98512 17.0002H6.63996C6.08392 17.0002 5.80588 17.0002 5.6394 16.8904C5.45944 16.7719 5.34592 16.5729 5.33388 16.3551C5.32272 16.1534 5.46044 15.9076 5.73584 15.416L10.8706 6.25005C11.15 5.75117 11.2898 5.50169 11.4676 5.40885C11.6597 5.30853 11.8874 5.30837 12.0796 5.40841C12.2576 5.50097 12.3977 5.75025 12.6778 6.24869L13.8621 8.35549C14.0658 8.71793 14.1677 8.89921 14.2125 9.09041C14.2613 9.29857 14.2614 9.51545 14.2128 9.72361C14.1682 9.91485 14.0664 10.0962 13.863 10.4589L10.7925 15.9321C10.5861 16.3 10.4829 16.484 10.3415 16.6215C10.1876 16.7712 10.0009 16.8815 9.79692 16.9434C9.60944 17.0002 9.40136 17.0002 8.98512 17.0002ZM17.352 17.0002H14.6331C14.072 17.0002 13.7914 17.0002 13.6244 16.8895C13.4439 16.7699 13.3308 16.5695 13.3201 16.3505C13.3102 16.1479 13.4514 15.9011 13.7338 15.4075L15.091 13.0348C15.3698 12.5475 15.5093 12.3037 15.6858 12.2125C15.8765 12.1138 16.1021 12.1137 16.293 12.212C16.4696 12.303 16.6094 12.5465 16.8888 13.0334L18.2506 15.4062C18.5341 15.9001 18.6758 16.1471 18.6661 16.3498C18.6556 16.5689 18.5425 16.7696 18.362 16.8894C18.1949 17.0002 17.914 17.0002 17.352 17.0002Z" fill="white"/>
</g>
<defs>
<clipPath id="clip0_420_664">
<rect width="24" height="24" fill="white"/>
</clipPath>
</defs>
</svg>
