<svg width="24" height="24" viewBox="0 0 24 24" fill="none" xmlns="http://www.w3.org/2000/svg">
<g clip-path="url(#clip0_420_652)">
<path d="M12 24C18.6274 24 24 18.6274 24 12C24 5.37258 18.6274 0 12 0C5.37258 0 0 5.37258 0 12C0 18.6274 5.37258 24 12 24Z" fill="#8247E5"/>
<path fill-rule="evenodd" clip-rule="evenodd" d="M8.01148 5.30088C8.25312 5.16664 8.54688 5.16664 8.78852 5.30088L12.3885 7.30087C12.6425 7.44195 12.8 7.70968 12.8 8.0002V9.30088L11.2 10.2002V8.47092L8.4 6.91536L5.6 8.47092V11.5295L8.4 13.085L15.2115 9.30088C15.4531 9.16664 15.7469 9.16664 15.9885 9.30088L19.5885 11.3009C19.8425 11.442 20 11.7097 20 12.0002V16.0002C20 16.2907 19.8425 16.5584 19.5885 16.6995L15.9885 18.6995C15.7469 18.8338 15.4531 18.8338 15.2115 18.6995L11.6115 16.6995C11.3575 16.5584 11.2 16.2907 11.2 16.0002V14.6995L12.8 13.8002V15.5295L15.6 17.085L18.4 15.5295V12.4709L15.6 10.9154L8.78852 14.6995C8.54688 14.8338 8.25312 14.8338 8.01148 14.6995L4.41148 12.6995C4.15752 12.5584 4 12.2907 4 12.0002V8.0002C4 7.70968 4.15752 7.44195 4.41148 7.30087L8.01148 5.30088Z" fill="white"/>
</g>
<defs>
<clipPath id="clip0_420_652">
<rect width="24" height="24" fill="white"/>
</clipPath>
</defs>
</svg>
