<svg width="24" height="24" viewBox="0 0 24 24" fill="none" xmlns="http://www.w3.org/2000/svg">
<g clip-path="url(#clip0_420_677)">
<path d="M12.0856 23.9999C18.5831 23.9999 23.8503 18.6273 23.8503 12C23.8503 5.37256 18.5831 0 12.0856 0C5.58816 0 0.320923 5.37256 0.320923 12C0.320923 18.6273 5.58816 23.9999 12.0856 23.9999Z" fill="black"/>
<path fill-rule="evenodd" clip-rule="evenodd" d="M6.77196 5.91193C6.87008 5.81583 6.99963 5.75977 7.13309 5.75977H19.5923C19.82 5.75977 19.9338 6.04004 19.7729 6.2042L17.3116 8.71465C17.2174 8.81074 17.0879 8.86681 16.9505 8.86681H4.4913C4.26362 8.86681 4.14978 8.58653 4.31073 8.42237L6.77196 5.91193ZM6.77196 15.2848C6.86617 15.1887 6.99568 15.1327 7.13309 15.1327H19.5923C19.82 15.1327 19.9338 15.4129 19.7729 15.5771L17.3116 18.0876C17.2174 18.1837 17.0879 18.2397 16.9505 18.2397H4.4913C4.26362 18.2397 4.14978 17.9594 4.31073 17.7952L6.77196 15.2848ZM16.9505 10.4163C17.0879 10.4163 17.2174 10.4724 17.3116 10.5685L19.7729 13.0789C19.9338 13.2431 19.82 13.5234 19.5923 13.5234H7.13309C6.99568 13.5234 6.86617 13.4673 6.77196 13.3712L4.31073 10.8608C4.14978 10.6966 4.26362 10.4163 4.4913 10.4163H16.9505Z" fill="url(#paint0_linear_420_677)"/>
</g>
<defs>
<linearGradient id="paint0_linear_420_677" x1="16.5049" y1="3.24982" x2="7.61073" y2="19.9517" gradientUnits="userSpaceOnUse">
<stop stop-color="#00FFA3"/>
<stop offset="1" stop-color="#DC1FFF"/>
</linearGradient>
<clipPath id="clip0_420_677">
<rect width="24" height="24" fill="white"/>
</clipPath>
</defs>
</svg>
