<svg width="24" height="24" viewBox="0 0 24 24" fill="none" xmlns="http://www.w3.org/2000/svg">
<g clip-path="url(#clip0_420_681)">
<path d="M12 24C18.6274 24 24 18.6274 24 12C24 5.37258 18.6274 0 12 0C5.37258 0 0 5.37258 0 12C0 18.6274 5.37258 24 12 24Z" fill="#6FBCF0"/>
<path fill-rule="evenodd" clip-rule="evenodd" d="M6.2437 18.2436C7.4437 20.3248 9.59995 21.5717 12 21.5717C14.4 21.5717 16.5562 20.3248 17.7562 18.2436C18.9562 16.1623 18.9562 13.6779 17.7562 11.5967L12.6937 2.82168C12.3843 2.2873 11.6156 2.2873 11.3062 2.82168L6.2437 11.5967C5.03433 13.6779 5.03433 16.1623 6.2437 18.2436ZM10.575 6.99355L11.6531 5.11855C11.8031 4.85605 12.1968 4.85605 12.3468 5.11855L16.5 12.3186C17.2593 13.6404 17.4093 15.1686 16.9312 16.5748C16.8843 16.3498 16.8093 16.1154 16.7156 15.8811C16.1437 14.4279 14.8406 13.3123 12.8531 12.5623C11.4843 12.0467 10.6125 11.2779 10.2656 10.2936C9.81558 9.01856 10.2937 7.63105 10.575 6.99355ZM8.72808 10.1811L7.49995 12.3186C6.56245 13.9498 6.56245 15.8904 7.49995 17.5217C8.43745 19.1529 10.125 20.1186 12 20.1186C13.2468 20.1186 14.4093 19.6873 15.3281 18.9279C15.45 18.6279 15.8156 17.5311 15.3562 16.3967C14.9343 15.3467 13.9218 14.5123 12.3375 13.9123C10.5562 13.2373 9.3937 12.1779 8.88745 10.7717C8.82183 10.5748 8.77495 10.3779 8.72808 10.1811Z" fill="white"/>
</g>
<defs>
<clipPath id="clip0_420_681">
<rect width="24" height="24" fill="white"/>
</clipPath>
</defs>
</svg>
